<?xml version="1.0" encoding="utf-8"?>
<!-- Generator: Adobe Illustrator 27.1.0, SVG Export Plug-In . SVG Version: 6.00 Build 0)  -->
<svg version="1.1" id="Layer_1" xmlns="http://www.w3.org/2000/svg" xmlns:xlink="http://www.w3.org/1999/xlink" x="0px" y="0px"
	 viewBox="0 0 24 24" style="enable-background:new 0 0 24 24;" xml:space="preserve">
<style type="text/css">
	.st0{fill-rule:evenodd;clip-rule:evenodd;fill:#FFFFFF;}
</style>
<path class="st0" d="M20,8V5h-2v1h-2V5H8v1H6V5H4v3H20z M20,10H4v10h16V10z M18,3h2c1.1,0,2,0.9,2,2v15c0,1.1-0.9,2-2,2H4
	c-1.1,0-2-0.9-2-2V5c0-1.1,0.9-2,2-2h2V2h2v1h8V2h2V3z"/>
</svg>
