<?xml version="1.0" encoding="utf-8"?>
<!-- Generator: Adobe Illustrator 27.1.0, SVG Export Plug-In . SVG Version: 6.00 Build 0)  -->
<svg version="1.1" id="Layer_1" xmlns="http://www.w3.org/2000/svg" xmlns:xlink="http://www.w3.org/1999/xlink" x="0px" y="0px"
	 viewBox="0 0 512 512" style="enable-background:new 0 0 512 512;" xml:space="preserve">
<style type="text/css">
	.st0{fill:#FFFFFF;}
</style>
<path class="st0" d="M256,73.1C155.1,73.1,73.1,155.1,73.1,256s82,182.9,182.9,182.9c100.9,0,182.9-82,182.9-182.9
	S356.9,73.1,256,73.1z M256,410.1c-85,0-154.1-69.1-154.1-154.1c0-85,69.1-154.1,154.1-154.1S410.1,171,410.1,256
	C410.1,341,341,410.1,256,410.1z"/>
<path class="st0" d="M227.1,220.2c0-11.6,16.9-13.5,31.6-13.5c13.8,0,32.7,6.5,48.6,14.7l3.1-31.9c-7.9-4.5-26.2-9.9-44.9-11
	l4.5-32.5h-30.2l4.5,32.5c-38.9,3.7-51.7,26.2-51.7,45.2c0,47.7,88.9,37.5,88.9,66.9c0,11-10.4,15-28.8,15
	c-24.8,0-43.5-8.7-53.1-17.8l-4.8,35.8c9,5.4,27.4,10.2,49.4,11.3l-4.5,31.3H270l-4.5-31.6c45.7-4,53.9-28.2,53.9-44.3
	C319.4,233.4,227.1,247.5,227.1,220.2z"/>
</svg>
